<?xml version="1.0" standalone="no"?>
<!DOCTYPE svg PUBLIC "-//W3C//DTD SVG 20010904//EN"
 "http://www.w3.org/TR/2001/REC-SVG-20010904/DTD/svg10.dtd">
<svg version="1.0" xmlns="http://www.w3.org/2000/svg"
 width="700.000000pt" height="700.000000pt" viewBox="0 0 700.000000 700.000000"
 preserveAspectRatio="xMidYMid meet">
<metadata>
Created by potrace 1.11, written by Peter Selinger 2001-2013
</metadata>
<g transform="translate(0.000000,700.000000) scale(0.100000,-0.100000)"
fill="#000000" stroke="none">
<path d="M1861 6340 c-9 -7 -59 -87 -108 -175 -22 -38 -65 -113 -95 -165 -30
-52 -117 -203 -193 -335 -76 -132 -181 -314 -233 -405 -52 -91 -103 -178 -112
-195 -10 -16 -32 -55 -50 -85 -18 -30 -45 -77 -60 -105 -15 -27 -128 -223
-250 -435 -122 -212 -229 -398 -238 -415 -9 -16 -22 -37 -28 -45 -7 -8 -24
-37 -39 -65 -14 -27 -36 -66 -47 -85 -11 -19 -58 -101 -105 -183 l-85 -147
118 -203 c64 -111 128 -222 142 -247 14 -25 75 -130 135 -235 61 -104 120
-208 132 -230 13 -22 79 -137 147 -255 69 -118 136 -235 150 -260 64 -115 263
-458 279 -482 11 -15 19 -29 19 -32 0 -2 39 -71 86 -153 48 -81 100 -172 116
-201 17 -30 57 -99 89 -154 32 -55 59 -101 59 -102 0 -2 38 -67 84 -146 l84
-144 1637 0 c900 -1 1641 1 1645 4 6 4 178 295 282 480 11 19 37 64 58 100 21
36 47 81 57 100 35 61 473 822 513 890 31 54 258 447 320 555 58 102 331 576
349 605 11 19 30 52 41 73 l21 38 -64 112 c-36 62 -74 128 -85 147 -11 19 -86
150 -167 290 -81 140 -159 275 -173 300 -40 71 -81 142 -103 180 -41 70 -222
383 -441 765 -124 215 -251 435 -283 490 -32 55 -68 118 -80 140 -47 84 -237
410 -241 415 -7 6 -3274 6 -3283 0z m589 -1145 c74 -43 207 -120 295 -170 316
-181 711 -409 783 -452 41 -24 75 -43 77 -43 1 0 107 -61 235 -135 127 -74
234 -135 236 -135 2 0 21 -11 42 -23 35 -23 316 -186 412 -239 25 -14 218
-126 430 -248 212 -123 395 -228 407 -234 13 -6 23 -13 23 -16 0 -3 -24 -18
-52 -33 -29 -16 -69 -37 -88 -49 -58 -34 -352 -204 -390 -225 -42 -24 -244
-141 -470 -271 -91 -53 -183 -106 -205 -118 -22 -12 -213 -122 -425 -244 -212
-122 -410 -236 -440 -253 -30 -17 -84 -48 -119 -69 -34 -21 -64 -38 -66 -38
-1 0 -42 -23 -91 -52 -92 -53 -153 -88 -439 -253 -196 -113 -289 -167 -339
-195 l-36 -20 0 1820 0 1821 43 -24 c23 -13 103 -59 177 -102z"/>
</g>
</svg>
